<svg width="83" height="26" viewBox="0 0 83 26" fill="none" xmlns="http://www.w3.org/2000/svg">
<path d="M0.06 20.816L10.752 15.164V14.876L0.06 9.224V4.256L15.54 12.536V17.504L0.06 25.784V20.816Z" fill="#1168FF"/>
<path d="M20.8899 0.872H28.9899C32.3739 0.872 34.8819 1.952 36.5139 4.112C38.1459 6.272 38.9619 9.38 38.9619 13.436C38.9619 17.492 38.1459 20.6 36.5139 22.76C34.8819 24.92 32.3739 26 28.9899 26H20.8899V0.872ZM28.6299 21.752C30.2379 21.752 31.4139 21.236 32.1579 20.204C32.9019 19.172 33.2739 17.672 33.2739 15.704V11.132C33.2739 9.188 32.9019 7.7 32.1579 6.668C31.4139 5.636 30.2379 5.12 28.6299 5.12H26.2179V21.752H28.6299ZM53.6719 5.3V26H48.2719V5.3H41.0359V0.872H60.9079V5.3H53.6719ZM75.2578 5.3V26H69.8578V5.3H62.6218V0.872H82.4938V5.3H75.2578Z" fill="#333333"/>
</svg>
